<svg viewBox="0 0 32 32" xmlns="http://www.w3.org/2000/svg">
    <symbol id="share__addFotoIcon" viewBox="0 0 32 32">
        <g data-name="Layer 37" id="Layer_37">
            <path className="cls-1" d="M24,27H2a1,1,0,0,1-1-1V2A1,1,0,0,1,2,1H24a1,1,0,0,1,1,1V26A1,1,0,0,1,24,27ZM3,25H23V3H3Z" />
            <path className="cls-1" d="M30,31H8a1,1,0,0,1,0-2H29V7H28a1,1,0,0,1,0-2h2a1,1,0,0,1,1,1V30A1,1,0,0,1,30,31Z" />
            <path className="cls-1" d="M2,21.86a1,1,0,0,1-.7-.29,1,1,0,0,1,0-1.41L5.35,16a2.67,2.67,0,0,1,3.48-.29l3.59,2.6a.68.68,0,0,0,.88-.08L17,14.51a2.75,2.75,0,0,1,3.82,0l3.88,3.93a1,1,0,0,1-1.42,1.4l-3.88-3.93a.69.69,0,0,0-1,0l-3.71,3.75a2.68,2.68,0,0,1-3.48.3l-3.59-2.6a.67.67,0,0,0-.88.07L2.71,21.56A1,1,0,0,1,2,21.86Z" />
            <path className="cls-1" d="M13.85,12.86a4,4,0,1,1,4-4A4,4,0,0,1,13.85,12.86Zm0-6a2,2,0,1,0,2,2A2,2,0,0,0,13.85,6.86Z" />
        </g>
    </symbol>
    <symbol id="share__addFotoIcon added" viewBox="0 0 32 32">
        <g data-name="Layer 37" id="Layer_37">
            <path className="cls-1" d="M24,27H2a1,1,0,0,1-1-1V2A1,1,0,0,1,2,1H24a1,1,0,0,1,1,1V26A1,1,0,0,1,24,27ZM3,25H23V3H3Z" />
            <path className="cls-1" d="M30,31H8a1,1,0,0,1,0-2H29V7H28a1,1,0,0,1,0-2h2a1,1,0,0,1,1,1V30A1,1,0,0,1,30,31Z" />
            <path className="cls-1" d="M2,21.86a1,1,0,0,1-.7-.29,1,1,0,0,1,0-1.41L5.35,16a2.67,2.67,0,0,1,3.48-.29l3.59,2.6a.68.68,0,0,0,.88-.08L17,14.51a2.75,2.75,0,0,1,3.82,0l3.88,3.93a1,1,0,0,1-1.42,1.4l-3.88-3.93a.69.69,0,0,0-1,0l-3.71,3.75a2.68,2.68,0,0,1-3.48.3l-3.59-2.6a.67.67,0,0,0-.88.07L2.71,21.56A1,1,0,0,1,2,21.86Z" />
            <path className="cls-1" d="M13.85,12.86a4,4,0,1,1,4-4A4,4,0,0,1,13.85,12.86Zm0-6a2,2,0,1,0,2,2A2,2,0,0,0,13.85,6.86Z" />
        </g>
    </symbol>

    <symbol id="header__logo" viewBox="0 0 24 24" fill="none">
        <path d="M20 4L4 10L10 14L14 20L20 4Z" stroke="#109cf1" />
        <path d="M10 14L20 4" stroke="#109cf1" />
    </symbol>

    <symbol id="sidebar__profileIcon" viewBox="0 0 24 24" fill="none">
        <path d="M8.03329 7.33317C8.03329 5.14144 9.80822 
                      3.3665 12 3.3665C14.1917 3.3665 15.9666 5.14144 
                      15.9666 7.33317C15.9666 9.52491 14.1917 11.2998 
                      12 11.2998C9.80822 11.2998 8.03329 9.52491 8.03329 
                      7.33317ZM3.36663 17.8332C3.36663 17.3144 3.62092 
                      16.8083 4.16167 16.3092C4.70718 15.8057 5.49622 15.3581 
                      6.42548 14.9859C8.28512 14.2409 10.53 13.8665 12 13.8665C13.47 
                      13.8665 15.7148 14.2409 17.5744 14.9859C18.5037 15.3581 19.2927 
                      15.8057 19.8382 16.3092C20.379 16.8083 20.6333 17.3144 20.6333 
                      17.8332V20.6332H3.36663V17.8332Z" strokeWidth="1.4" />
    </symbol>

    <symbol id="sidebar__messagesIcon" viewBox="0 0 24 24" fill="none">
        <path d="M2.71 6.00058V6C2.71 5.28202 3.29116 4.7 4 4.7H20C20.7134 4.7 21.3 5.2866 21.3 6V18C21.3 
                                18.7134 20.7134 19.3 20 19.3H4C3.28669 19.3 2.70015 18.7135 2.7 18.0003C2.7 18.0002 
                                2.7 18.0001 2.7 18L2.71 6.00058Z" strokeWidth="1.4" />
        <path d="M3 6L12 12L21 6" strokeWidth="1.4" />
    </symbol>

    <symbol id="sidebar__newsIcon" viewBox="0 0 24 24" fill="none">
        <path d="M3 3.7H20C20.1634 3.7 20.3 3.8366 20.3 4V10C20.3 10.1634 20.1634 10.3 20 10.3H3C2.8366 
                    10.3 2.7 10.1634 2.7 10V4C2.7 3.8366 2.8366 3.7 3 3.7ZM3 13.7H20C20.1634 13.7 20.3 13.8366 20.3 
                    14V20C20.3 20.1634 20.1634 20.3 20 20.3H3C2.8366 20.3 2.7 20.1634 2.7 20V14C2.7 13.8366 2.8366 
                    13.7 3 13.7Z" strokeWidth="1.4" />
    </symbol>

    <symbol id="sidebar__musicIcon" viewBox="0 0 24 24" fill="none">
        <path d="M6 17.3H5.71005L5.50503 17.505L2.7 20.3101V4C2.7 3.2866 3.2866 2.7 4 2.7H20C20.7134 2.7 
                    21.3 3.2866 21.3 4V16C21.3 16.7134 20.7134 17.3 20 17.3H6Z" strokeWidth="1.4" />
    </symbol>

    <symbol version="1.1" id="sidebar__usersIcon" x="0px" y="0px" viewBox="0 0 490.667 490.667">
        <g>
            <g>
                <path d="M245.333,85.333c-41.173,0-74.667,33.493-74.667,74.667s33.493,74.667,74.667,74.667S320,201.173,320,160
                C320,118.827,286.507,85.333,245.333,85.333z M245.333,213.333C215.936,213.333,192,189.397,192,160
                c0-29.397,23.936-53.333,53.333-53.333s53.333,23.936,53.333,53.333S274.731,213.333,245.333,213.333z" />
            </g>
        </g>
        <g>
            <g>
                <path d="M394.667,170.667c-29.397,0-53.333,23.936-53.333,53.333s23.936,53.333,53.333,53.333S448,253.397,448,224
                S424.064,170.667,394.667,170.667z M394.667,256c-17.643,0-32-14.357-32-32c0-17.643,14.357-32,32-32s32,14.357,32,32
                C426.667,241.643,412.309,256,394.667,256z" />
            </g>
        </g>
        <g>
            <g>
                <path d="M97.515,170.667c-29.419,0-53.333,23.936-53.333,53.333s23.936,53.333,53.333,53.333s53.333-23.936,53.333-53.333
                S126.933,170.667,97.515,170.667z M97.515,256c-17.643,0-32-14.357-32-32c0-17.643,14.357-32,32-32c17.643,0,32,14.357,32,32
                C129.515,241.643,115.157,256,97.515,256z" />
            </g>
        </g>
        <g>
            <g>
                <path d="M245.333,256c-76.459,0-138.667,62.208-138.667,138.667c0,5.888,4.779,10.667,10.667,10.667S128,400.555,128,394.667
                c0-64.704,52.629-117.333,117.333-117.333s117.333,52.629,117.333,117.333c0,5.888,4.779,10.667,10.667,10.667
                c5.888,0,10.667-4.779,10.667-10.667C384,318.208,321.792,256,245.333,256z" />
            </g>
        </g>
        <g>
            <g>
                <path d="M394.667,298.667c-17.557,0-34.752,4.8-49.728,13.867c-5.013,3.072-6.635,9.621-3.584,14.656
                c3.093,5.035,9.621,6.635,14.656,3.584C367.637,323.712,380.992,320,394.667,320c41.173,0,74.667,33.493,74.667,74.667
                c0,5.888,4.779,10.667,10.667,10.667c5.888,0,10.667-4.779,10.667-10.667C490.667,341.739,447.595,298.667,394.667,298.667z" />
            </g>
        </g>
        <g>
            <g>
                <path d="M145.707,312.512c-14.955-9.045-32.149-13.845-49.707-13.845c-52.928,0-96,43.072-96,96
                c0,5.888,4.779,10.667,10.667,10.667s10.667-4.779,10.667-10.667C21.333,353.493,54.827,320,96,320
                c13.675,0,27.029,3.712,38.635,10.752c5.013,3.051,11.584,1.451,14.656-3.584C152.363,322.133,150.741,315.584,145.707,312.512z" />
            </g>
        </g>
    </symbol>

    <symbol id="sidebar__settingsIcon" viewBox="0 0 24 24">
        <path d="M6 10C4.9 10 4 10.9 4 12C4 13.1 4.9 14 6 14C7.1 14 8 13.1 8 12C8 10.9 7.1 10 6 10ZM18 
                  10C16.9 10 16 10.9 16 12C16 13.1 16.9 14 18 14C19.1 14 20 13.1 20 12C20 10.9 19.1 10 18 10ZM12 
                  10C10.9 10 10 10.9 10 12C10 13.1 10.9 14 12 14C13.1 14 14 13.1 14 12C14 10.9 13.1 10 12 10Z" />
    </symbol>

</svg>